<?xml version="1.0" standalone="no"?>
<!DOCTYPE svg PUBLIC "-//W3C//DTD SVG 20010904//EN"
 "http://www.w3.org/TR/2001/REC-SVG-20010904/DTD/svg10.dtd">
<svg version="1.0" xmlns="http://www.w3.org/2000/svg"
 width="700.000000pt" height="700.000000pt" viewBox="0 0 700.000000 700.000000"
 preserveAspectRatio="xMidYMid meet">
<metadata>
Created by potrace 1.14, written by Peter Selinger 2001-2017
</metadata>
<g transform="translate(0.000000,700.000000) scale(0.100000,-0.100000)"
fill="#000000" stroke="none">
<path d="M549 6033 c-3 -68 -1 -844 3 -848 2 -2 839 -6 1859 -8 l1854 -3 85
-25 c240 -73 428 -212 554 -413 93 -148 136 -295 141 -478 8 -307 -131 -589
-385 -779 -71 -53 -215 -122 -315 -151 l-80 -23 -1135 -2 c-624 -2 -1140 -5
-1146 -7 -8 -3 -11 -128 -11 -435 l1 -431 45 -1 c25 0 324 0 664 0 l619 0 187
-127 c175 -119 739 -503 1016 -692 134 -92 200 -136 604 -411 l263 -179 708 2
708 3 -247 171 c-1076 748 -1876 1307 -1879 1313 -1 4 22 15 52 24 72 23 254
113 346 172 532 339 863 947 854 1567 -2 141 -15 241 -51 388 -59 243 -167
465 -326 670 -202 259 -507 475 -839 594 -91 33 -215 68 -283 80 -16 3 -40 8
-52 10 -11 3 -43 7 -70 11 -26 4 -59 10 -73 13 -14 3 -845 8 -1847 9 -1743 3
-1823 3 -1824 -14z m3731 -267 c528 -71 962 -378 1195 -845 59 -119 115 -280
131 -381 2 -14 6 -34 9 -45 18 -84 23 -265 11 -408 -8 -103 -56 -301 -97 -405
-152 -382 -437 -680 -809 -843 -77 -35 -225 -82 -289 -94 -14 -3 -37 -7 -51
-10 -29 -6 -157 -13 -307 -15 -57 -1 -103 -5 -103 -9 0 -3 12 -13 28 -23 15
-9 176 -123 359 -255 183 -131 340 -244 350 -251 56 -40 791 -566 808 -578 11
-8 110 -78 219 -157 l199 -142 -233 -3 -234 -2 -114 77 c-63 43 -125 85 -137
93 -21 13 -541 369 -810 553 -136 93 -751 514 -894 611 l-116 79 -570 1 -570
1 -1 153 0 152 975 1 c537 0 983 2 991 3 8 2 38 6 66 10 110 13 325 88 406
141 21 14 40 25 42 25 16 0 146 101 208 163 101 99 132 136 188 225 76 124
134 264 159 384 6 29 14 64 17 78 3 14 7 80 10 148 18 482 -240 921 -671 1140
-102 52 -211 87 -345 112 -101 18 -173 19 -1779 20 -920 0 -1676 2 -1680 4 -5
3 -7 275 -2 296 2 8 3381 4 3441 -4z"/>
<path d="M560 2848 l0 -1828 425 0 425 0 0 1393 0 1393 1333 -1 c732 0 1359 4
1392 8 134 19 264 119 328 254 30 64 32 75 32 178 -1 103 -3 114 -32 176 -56
115 -143 194 -258 235 -47 17 -147 18 -1847 19 l-1798 2 0 -1829z m3541 1538
c139 -19 163 -217 34 -280 -39 -19 -74 -20 -1530 -20 l-1490 -1 0 -1390 0
-1390 -137 -3 -138 -3 0 1545 0 1545 38 3 c70 6 3177 0 3223 -6z"/>
</g>
</svg>
