<svg xmlns="http://www.w3.org/2000/svg" version="1.1" xmlns:xlink="http://www.w3.org/1999/xlink" xmlns:svgjs="http://svgjs.com/svgjs" width="160" height="160"><svg version="1.1" id="SvgjsSvg1000" xmlns="http://www.w3.org/2000/svg" xmlns:xlink="http://www.w3.org/1999/xlink" x="0px" y="0px" viewBox="0 0 160 160" style="enable-background:new 0 0 160 160;" xml:space="preserve">
<style type="text/css">
	.st0{fill:#18DEA3;}
</style>
<g>
	<path class="st0" d="M155.3,136.7h-32.5l-47.3-32.2H45.1V84.6h48.8c5.7,0,11.2-2.3,15.2-6.3c4-4,6.3-9.5,6.3-15.2
		c0-5.7-2.3-11.2-6.3-15.2c-4-4-9.5-6.3-15.2-6.3H12.5V21.7h77.9c26.2,0,44.8,18.6,44.8,41.4c0,17.6-12,34.1-28.9,39.5L155.3,136.7z
		 M124.9,130.3h10.9L90.5,97.9l8.2-0.2c17.3-2.3,30.1-17.2,30.1-34.7c0-19.3-15.7-35-35-35H19.1v7h74.8c7.4,0.1,14.4,3,19.6,8.3
		c5.2,5.2,8.1,12.3,8.1,19.7c0,7.4-2.9,14.5-8.1,19.7C108.2,88,101.2,91,93.8,91H51.5v7h26.1L124.9,130.3z"></path>
	<path class="st0" d="M32.2,136.7H12.8V53.1H93c2.6,0,5.2,1,7,2.9c1.9,1.9,2.9,4.4,2.9,7c0,2.6-1,5.2-2.9,7C98.1,72,95.6,73,93,73
		H32.2V136.7z M19.2,130.3h6.3V66.6H93c0.9,0,1.8-0.4,2.5-1c0.7-0.7,1-1.5,1-2.5c0-0.9-0.4-1.8-1-2.5c-0.7-0.7-1.5-1-2.5-1H19.2
		V130.3z"></path>
</g>
</svg><style>@media (prefers-color-scheme: light) { :root { filter: none; } }
</style></svg>