<?xml version="1.0" encoding="utf-8"?>
<!-- Generator: Adobe Illustrator 26.0.3, SVG Export Plug-In . SVG Version: 6.00 Build 0)  -->
<svg width="220" height="220" version="1.1" id="Layer_1" xmlns="http://www.w3.org/2000/svg" xmlns:xlink="http://www.w3.org/1999/xlink" x="0px" y="0px"
	 viewBox="0 0 206 206" style="enable-background:new 0 0 206 206;" xml:space="preserve">
<style type="text/css">
	.st0{fill:#FFFFFF;}
	.st1{fill:#19DEA3;}
</style>
<g>
	<path class="st0" d="M15,26C15,12.2,26.2,1,40,1h126c13.8,0,25,11.2,25,25v126c0,13.8-11.2,25-25,25H40c-13.8,0-25-11.2-25-25V26z"
		/>
	<path class="st1" d="M148,122.4h-18.6L102.3,104H84.8V92.5h28c3.3,0,6.4-1.3,8.7-3.6c2.3-2.3,3.6-5.5,3.6-8.7
		c0-3.3-1.3-6.4-3.6-8.7c-2.3-2.3-5.4-3.6-8.7-3.6H66.1V56.4h44.7c15,0,25.7,10.7,25.7,23.8c0,10.1-6.9,19.6-16.6,22.6L148,122.4z
		 M130.6,118.7h6.3l-26-18.5l4.7-0.1c9.9-1.3,17.3-9.8,17.3-19.9c0-11.1-9-20.1-20-20.1H69.9v4h42.9c4.2,0,8.3,1.7,11.2,4.8
		c3,3,4.6,7.1,4.6,11.3c0,4.2-1.7,8.3-4.6,11.3c-3,3-7,4.7-11.2,4.8H88.5v4h15L130.6,118.7z"/>
	<path class="st1" d="M77.4,122.4H66.3V74.5h46c1.5,0,3,0.6,4,1.7c1.1,1.1,1.7,2.5,1.7,4c0,1.5-0.6,3-1.7,4c-1.1,1.1-2.5,1.7-4,1.7
		H77.4V122.4z M70,118.7h3.6V82.2h38.7c0.5,0,1-0.2,1.4-0.6c0.4-0.4,0.6-0.9,0.6-1.4c0-0.5-0.2-1-0.6-1.4c-0.4-0.4-0.9-0.6-1.4-0.6
		H70V118.7z"/>
</g>
</svg>
